<?xml version="1.0" encoding="UTF-8"?>
<svg version="1.1" xmlns="http://www.w3.org/2000/svg" width="24" height="24">
<path d="M0 0 C5.28 0 10.56 0 16 0 C15.125 13.875 15.125 13.875 14 15 C12.00200428 15.09873816 10.00042842 15.12971799 8 15.125 C6.906875 15.12757812 5.81375 15.13015625 4.6875 15.1328125 C2 15 2 15 1 14 C0.53355123 9.34127094 0.29472371 4.67347603 0 0 Z " fill="#034D76" transform="translate(4,7)"/>
<path d="M0 0 C0 0.66 0 1.32 0 2 C-5.94 2 -11.88 2 -18 2 C-18 1.34 -18 0.68 -18 0 C-11.96496237 -1.50875941 -6.10261631 -0.64186094 0 0 Z " fill="#034D76" transform="translate(21,3)"/>
</svg>
