<?xml version="1.0" encoding="UTF-8"?>
<svg version="1.1" xmlns="http://www.w3.org/2000/svg" width="50" height="50">
<path d="M0 0 C4.50503185 3.30626801 8.5369245 7.81736909 9.8203125 13.3359375 C10.5814943 20.18657369 9.96102577 25.69391299 5.8203125 31.3359375 C0.86874985 36.61603985 -3.69962371 39.35520268 -10.9921875 39.7109375 C-17.07032773 39.5574035 -21.4898755 37.85838342 -25.9375 33.6875 C-30.97740283 28.11195533 -32.67830814 23.41736032 -32.48828125 15.89453125 C-31.77686297 9.99606326 -29.09548315 5.89601261 -24.7421875 1.9609375 C-17.28934929 -3.82523225 -8.35089852 -4.76711211 0 0 Z M-21.1796875 16.3359375 C-21.1796875 17.6559375 -21.1796875 18.9759375 -21.1796875 20.3359375 C-14.5796875 20.3359375 -7.9796875 20.3359375 -1.1796875 20.3359375 C-1.1796875 19.0159375 -1.1796875 17.6959375 -1.1796875 16.3359375 C-7.7796875 16.3359375 -14.3796875 16.3359375 -21.1796875 16.3359375 Z " fill="#FFFFFF" transform="translate(36.1796875,6.6640625)"/>
</svg>
