<?xml version="1.0" encoding="UTF-8"?>
<svg version="1.1" xmlns="http://www.w3.org/2000/svg" width="64" height="64">
<path d="M0 0 C5.93431181 4.27133768 10.20568179 9.34232669 12.03515625 16.46484375 C13.04681569 25.45263916 12.4657593 33.03709197 7.03515625 40.46484375 C2.2754769 45.78980568 -3.04719702 49.03485813 -10.16796875 49.81640625 C-19.36512824 50.19464441 -26.15160915 48.8299187 -33.0625 42.5625 C-39.50376135 35.67154073 -40.45086305 29.20915183 -40.265625 19.9375 C-39.51985175 11.32720885 -35.75963599 6.67407018 -29.37890625 1.09375 C-21.20769726 -4.41983277 -8.67190296 -4.5547752 0 0 Z M-19.76171875 17.93945312 C-20.365 18.54595703 -20.96828125 19.15246094 -21.58984375 19.77734375 C-22.20085938 20.37224609 -22.811875 20.96714844 -23.44140625 21.58007812 C-24.01890625 22.15693359 -24.59640625 22.73378906 -25.19140625 23.328125 C-25.72330566 23.85704346 -26.25520508 24.38596191 -26.80322266 24.9309082 C-28.26669808 26.54275596 -28.26669808 26.54275596 -27.96484375 29.46484375 C-23.76769385 27.5994438 -20.69758653 24.74872781 -17.28125 21.73046875 C-14.96484375 20.46484375 -14.96484375 20.46484375 -12.44140625 21.03515625 C-9.89402028 22.50572922 -7.91783932 24.07769511 -5.77734375 26.08984375 C-3.27520228 28.75024237 -3.27520228 28.75024237 0.03515625 29.46484375 C-0.54248813 26.33400276 -1.36514419 24.68741369 -3.6171875 22.44921875 C-4.41092773 21.65644531 -4.41092773 21.65644531 -5.22070312 20.84765625 C-5.77564453 20.30882812 -6.33058594 19.77 -6.90234375 19.21484375 C-7.45341797 18.66054688 -8.00449219 18.10625 -8.57226562 17.53515625 C-13.8934125 12.28513041 -14.88267444 13.12004158 -19.76171875 17.93945312 Z " fill="#FFFFFF" transform="translate(45.96484375,8.53515625)"/>
</svg>
