<svg width="30" height="29" viewBox="0 0 30 29" fill="none" xmlns="http://www.w3.org/2000/svg">
<path d="M29.6802 0.336053C29.8365 0.48694 29.9416 0.68 29.9818 0.889752C30.022 1.0995 29.9953 1.31609 29.9053 1.51092L17.5428 28.3577C17.4564 28.5454 17.3151 28.7047 17.1362 28.8161C16.9573 28.9274 16.7486 28.9858 16.5358 28.9843C16.3229 28.9827 16.1152 28.9212 15.9381 28.8072C15.761 28.6933 15.6222 28.5319 15.5388 28.3429L11.0785 18.2901L0.660933 13.983C0.465835 13.902 0.299421 13.7679 0.182044 13.5971C0.0646667 13.4262 0.00141455 13.2261 2.34496e-05 13.0211C-0.00136765 12.8161 0.0591626 12.6152 0.174211 12.4429C0.28926 12.2706 0.453839 12.1344 0.647821 12.0509L28.463 0.118799C28.6646 0.0324203 28.8885 0.00694401 29.1054 0.0457205C29.3223 0.084497 29.5241 0.185711 29.6802 0.336053Z" fill="url(#paint0_linear_1_39)"/>
<defs>
<linearGradient id="paint0_linear_1_39" x1="15" y1="0.0280762" x2="15" y2="28.9843" gradientUnits="userSpaceOnUse">
<stop stop-color="#0690DC"/>
<stop offset="1" stop-color="#034D76"/>
</linearGradient>
</defs>
</svg>
